<svg width="800" height="480" viewBox="0 0 800 480" fill="none" xmlns="http://www.w3.org/2000/svg">
  <rect width="800" height="480" fill="#E8DCC7"/>
  <rect y="320" width="800" height="160" fill="#D7C19A"/>
  <path d="M0 352C122 337 232 336 340 342C450 348 569 358 800 344V480H0V352Z" fill="#E1CCA5"/>
  <circle cx="622" cy="92" r="31" fill="#D67848" fill-opacity="0.8"/>
  <path d="M116 196C157 170 203 151 252 146" stroke="#CDB88F" stroke-width="24" stroke-linecap="round" opacity="0.44"/>
  <path d="M498 170C550 177 598 197 650 233" stroke="#A5A890" stroke-width="17" stroke-linecap="round" opacity="0.34"/>
  <rect x="278" y="214" width="244" height="46" rx="4" fill="#A77945"/>
  <rect x="258" y="198" width="284" height="18" rx="3" fill="#68492D"/>
  <rect x="300" y="164" width="200" height="34" rx="4" fill="#BB905B"/>
  <rect x="286" y="152" width="228" height="14" rx="3" fill="#68492C"/>
  <rect x="320" y="122" width="160" height="28" rx="4" fill="#A57846"/>
  <rect x="308" y="112" width="184" height="12" rx="3" fill="#68492C"/>
  <path d="M400 82L432 112H368L400 82Z" fill="#5E4026"/>
  <rect x="296" y="260" width="16" height="94" fill="#6B4A2C"/>
  <rect x="350" y="260" width="16" height="94" fill="#6B4A2C"/>
  <rect x="434" y="260" width="16" height="94" fill="#6B4A2C"/>
  <rect x="488" y="260" width="16" height="94" fill="#6B4A2C"/>
</svg>
