<svg width="800" height="480" viewBox="0 0 800 480" fill="none" xmlns="http://www.w3.org/2000/svg">
  <rect width="800" height="480" fill="#E8E0CB"/>
  <rect y="320" width="800" height="160" fill="#D8C6A0"/>
  <path d="M0 352C122 337 232 336 340 342C450 348 569 358 800 344V480H0V352Z" fill="#E1CCA5"/>
  <circle cx="622" cy="92" r="31" fill="#D97B4D" fill-opacity="0.8"/>
  <path d="M116 196C157 170 203 151 252 146" stroke="#CDB88F" stroke-width="24" stroke-linecap="round" opacity="0.44"/>
  <path d="M498 170C550 177 598 197 650 233" stroke="#A5A890" stroke-width="17" stroke-linecap="round" opacity="0.34"/>
  <rect x="344" y="128" width="112" height="228" rx="4" fill="#917059"/>
  <rect x="332" y="114" width="136" height="18" rx="3" fill="#745742"/>
  <rect x="360" y="158" width="24" height="24" fill="#D9CDBD"/>
  <rect x="416" y="158" width="24" height="24" fill="#D9CDBD"/>
  <rect x="360" y="208" width="24" height="24" fill="#D9CDBD"/>
  <rect x="416" y="208" width="24" height="24" fill="#D9CDBD"/>
  <rect x="360" y="258" width="24" height="24" fill="#D9CDBD"/>
  <rect x="416" y="258" width="24" height="24" fill="#D9CDBD"/>
  <rect x="380" y="306" width="40" height="50" fill="#7B5D46"/>
</svg>
