<svg width="800" height="480" viewBox="0 0 800 480" fill="none" xmlns="http://www.w3.org/2000/svg">
  <rect width="800" height="480" fill="#E7DFC9"/>
  <rect y="320" width="800" height="160" fill="#D6C49F"/>
  <path d="M0 352C122 337 232 336 340 342C450 348 569 358 800 344V480H0V352Z" fill="#E1CCA5"/>
  <circle cx="622" cy="92" r="31" fill="#D77A49" fill-opacity="0.8"/>
  <path d="M116 196C157 170 203 151 252 146" stroke="#CDB88F" stroke-width="24" stroke-linecap="round" opacity="0.44"/>
  <path d="M498 170C550 177 598 197 650 233" stroke="#A5A890" stroke-width="17" stroke-linecap="round" opacity="0.34"/>
  <path d="M182 316H618" stroke="#745335" stroke-width="12" stroke-linecap="round"/>
  <path d="M226 316C262 250 320 214 400 214C480 214 538 250 574 316" stroke="#845F3B" stroke-width="12" fill="none"/>
  <rect x="238" y="268" width="40" height="48" fill="#8B6640"/>
  <rect x="372" y="236" width="56" height="80" fill="#8B6640"/>
  <rect x="522" y="268" width="40" height="48" fill="#8B6640"/>
  <rect x="246" y="246" width="24" height="22" fill="#A77A49"/>
  <rect x="388" y="208" width="24" height="28" fill="#A77A49"/>
  <rect x="530" y="246" width="24" height="22" fill="#A77A49"/>
</svg>
