<svg width="800" height="480" viewBox="0 0 800 480" fill="none" xmlns="http://www.w3.org/2000/svg">
  <rect width="800" height="480" fill="#E8DDC8"/>
  <rect y="320" width="800" height="160" fill="#D8C49E"/>
  <path d="M0 352C122 337 232 336 340 342C450 348 569 358 800 344V480H0V352Z" fill="#E1CCA5"/>
  <circle cx="622" cy="92" r="31" fill="#D87B4A" fill-opacity="0.8"/>
  <path d="M116 196C157 170 203 151 252 146" stroke="#CDB88F" stroke-width="24" stroke-linecap="round" opacity="0.44"/>
  <path d="M498 170C550 177 598 197 650 233" stroke="#A5A890" stroke-width="17" stroke-linecap="round" opacity="0.34"/>
  <rect x="228" y="258" width="344" height="94" rx="5" fill="#8A643C"/>
  <rect x="206" y="238" width="388" height="24" rx="4" fill="#68492C"/>
  <rect x="274" y="190" width="252" height="46" rx="4" fill="#A87A46"/>
  <rect x="258" y="176" width="284" height="16" rx="3" fill="#694A2C"/>
  <path d="M400 130L432 176H368L400 130Z" fill="#5D3F25"/>
  <rect x="260" y="282" width="56" height="70" fill="#72502F"/>
  <rect x="484" y="282" width="56" height="70" fill="#72502F"/>
  <rect x="360" y="292" width="80" height="60" fill="#6A4A2D"/>
</svg>
