<svg width="800" height="480" viewBox="0 0 800 480" fill="none" xmlns="http://www.w3.org/2000/svg">
  <rect width="800" height="480" fill="#E5DFD5"/>
  <rect y="320" width="800" height="160" fill="#D1C3A4"/>
  <path d="M0 352C122 337 232 336 340 342C450 348 569 358 800 344V480H0V352Z" fill="#E1CCA5"/>
  <circle cx="622" cy="92" r="31" fill="#D97A4F" fill-opacity="0.8"/>
  <path d="M116 196C157 170 203 151 252 146" stroke="#CDB88F" stroke-width="24" stroke-linecap="round" opacity="0.44"/>
  <path d="M498 170C550 177 598 197 650 233" stroke="#A5A890" stroke-width="17" stroke-linecap="round" opacity="0.34"/>
  <rect x="300" y="214" width="200" height="126" rx="8" fill="#A77655"/>
  <path d="M400 118L474 214H326L400 118Z" fill="#87614A"/>
  <circle cx="400" cy="188" r="44" fill="#9A6E54"/>
  <rect x="344" y="162" width="18" height="54" fill="#7B573F"/>
  <rect x="438" y="162" width="18" height="54" fill="#7B573F"/>
  <rect x="388" y="124" width="24" height="40" fill="#6A4A35"/>
  <rect x="382" y="102" width="36" height="26" fill="#6A4A35"/>
  <rect x="384" y="250" width="32" height="90" fill="#7B573F"/>
</svg>
