<svg width="800" height="480" viewBox="0 0 800 480" fill="none" xmlns="http://www.w3.org/2000/svg">
  <rect width="800" height="480" fill="#E7DDCA"/>
  <rect y="320" width="800" height="160" fill="#D7C5A1"/>
  <path d="M0 352C122 337 232 336 340 342C450 348 569 358 800 344V480H0V352Z" fill="#E1CCA5"/>
  <circle cx="622" cy="92" r="31" fill="#D97A4C" fill-opacity="0.8"/>
  <path d="M116 196C157 170 203 151 252 146" stroke="#CDB88F" stroke-width="24" stroke-linecap="round" opacity="0.44"/>
  <path d="M498 170C550 177 598 197 650 233" stroke="#A5A890" stroke-width="17" stroke-linecap="round" opacity="0.34"/>
  <path d="M266 356V212C266 176 294 148 330 148H470C506 148 534 176 534 212V356" fill="#E5D3BF"/>
  <path d="M320 356V244H368V356M432 356V244H480V356" fill="#B88F67"/>
  <path d="M400 148V356" stroke="#B88F67" stroke-width="10"/>
  <path d="M286 200H514" stroke="#C8A884" stroke-width="10"/>
  <path d="M314 176H486" stroke="#C8A884" stroke-width="8"/>
  <path d="M352 120L392 148H312L352 120Z" fill="#B88F67"/>
  <path d="M448 120L488 148H408L448 120Z" fill="#B88F67"/>
</svg>
