<svg width="800" height="480" viewBox="0 0 800 480" fill="none" xmlns="http://www.w3.org/2000/svg">
  <rect width="800" height="480" fill="#EADFCB"/>
  <rect y="310" width="800" height="170" fill="#C9B184"/>
  <path d="M0 338C119 321 212 322 315 329C421 337 532 347 800 328V480H0V338Z" fill="#D8C299"/>
  <circle cx="636" cy="92" r="34" fill="#D87B48" fill-opacity="0.82"/>
  <path d="M120 328H680" stroke="#80684B" stroke-width="5" stroke-linecap="round" opacity="0.5"/>
  <rect x="255" y="286" width="290" height="82" rx="6" fill="#8A6742"/>
  <rect x="238" y="268" width="324" height="26" rx="4" fill="#6E4F30"/>
  <rect x="288" y="198" width="224" height="78" rx="4" fill="#B98953"/>
  <rect x="272" y="182" width="256" height="20" rx="3" fill="#6C4A2E"/>
  <rect x="322" y="122" width="124" height="64" rx="4" fill="#9E7346"/>
  <rect x="306" y="108" width="156" height="16" rx="3" fill="#644327"/>
  <path d="M384 72L414 108H354L384 72Z" fill="#5B3D23"/>
  <rect x="311" y="304" width="40" height="64" fill="#735234"/>
  <rect x="448" y="304" width="40" height="64" fill="#735234"/>
  <rect x="379" y="226" width="42" height="50" fill="#6D4A2C"/>
  <rect x="369" y="140" width="62" height="46" fill="#755130"/>
  <path d="M160 214C193 188 231 167 279 164" stroke="#BFA67A" stroke-width="24" stroke-linecap="round" opacity="0.45"/>
  <path d="M510 172C556 179 597 194 639 220" stroke="#A4A784" stroke-width="18" stroke-linecap="round" opacity="0.38"/>
</svg>
