<svg width="800" height="480" viewBox="0 0 800 480" fill="none" xmlns="http://www.w3.org/2000/svg">
  <rect width="800" height="480" fill="#E8DCC5"/>
  <rect y="316" width="800" height="164" fill="#CDB78B"/>
  <path d="M0 350C124 334 229 330 336 335C445 340 562 350 800 338V480H0V350Z" fill="#DEC89D"/>
  <circle cx="626" cy="90" r="30" fill="#D67646" fill-opacity="0.8"/>
  <path d="M114 182C153 160 194 145 244 141" stroke="#D1BC94" stroke-width="24" stroke-linecap="round" opacity="0.44"/>
  <path d="M486 164C536 168 587 187 644 224" stroke="#A8AA8D" stroke-width="17" stroke-linecap="round" opacity="0.34"/>
  <rect x="334" y="128" width="132" height="236" rx="5" fill="#8A643C"/>
  <rect x="318" y="112" width="164" height="18" rx="3" fill="#68492C"/>
  <rect x="326" y="160" width="148" height="14" rx="3" fill="#6A4A2D"/>
  <rect x="326" y="206" width="148" height="14" rx="3" fill="#6A4A2D"/>
  <rect x="326" y="252" width="148" height="14" rx="3" fill="#6A4A2D"/>
  <rect x="326" y="298" width="148" height="14" rx="3" fill="#6A4A2D"/>
  <path d="M400 82L432 112H368L400 82Z" fill="#5D3F25"/>
  <rect x="356" y="144" width="18" height="204" fill="#6D4B2D"/>
  <rect x="392" y="144" width="18" height="204" fill="#6D4B2D"/>
  <rect x="428" y="144" width="18" height="204" fill="#6D4B2D"/>
  <rect x="314" y="364" width="172" height="16" rx="3" fill="#795735"/>
</svg>
