<svg width="800" height="480" viewBox="0 0 800 480" fill="none" xmlns="http://www.w3.org/2000/svg">
  <rect width="800" height="480" fill="#E7DDC7"/>
  <rect y="318" width="800" height="162" fill="#D0BC93"/>
  <path d="M0 356C136 336 246 331 367 337C484 342 603 352 800 341V480H0V356Z" fill="#E0CCA4"/>
  <circle cx="624" cy="96" r="32" fill="#D77A47" fill-opacity="0.8"/>
  <path d="M92 196C133 173 174 158 223 154" stroke="#CDB78F" stroke-width="24" stroke-linecap="round" opacity="0.42"/>
  <path d="M488 150C537 156 584 176 637 213" stroke="#A2A78C" stroke-width="18" stroke-linecap="round" opacity="0.36"/>
  <rect x="182" y="248" width="436" height="104" rx="6" fill="#8A673F"/>
  <rect x="160" y="230" width="480" height="24" rx="4" fill="#68492B"/>
  <rect x="214" y="188" width="372" height="42" rx="4" fill="#A87B47"/>
  <rect x="198" y="174" width="404" height="16" rx="3" fill="#6A4A2D"/>
  <rect x="252" y="138" width="296" height="36" rx="4" fill="#BC915C"/>
  <rect x="236" y="126" width="328" height="14" rx="3" fill="#6B4A2C"/>
  <path d="M400 92L434 126H366L400 92Z" fill="#5E4026"/>
  <rect x="240" y="270" width="52" height="82" fill="#755232"/>
  <rect x="344" y="270" width="112" height="82" fill="#755232"/>
  <rect x="508" y="270" width="52" height="82" fill="#755232"/>
  <path d="M268 212V248" stroke="#6E4D2E" stroke-width="6"/>
  <path d="M400 200V248" stroke="#6E4D2E" stroke-width="6"/>
  <path d="M532 212V248" stroke="#6E4D2E" stroke-width="6"/>
</svg>
