<svg width="800" height="480" viewBox="0 0 800 480" fill="none" xmlns="http://www.w3.org/2000/svg">
  <rect width="800" height="480" fill="#E8DEC9"/>
  <rect y="320" width="800" height="160" fill="#D9C49F"/>
  <path d="M0 352C122 337 232 336 340 342C450 348 569 358 800 344V480H0V352Z" fill="#E1CCA5"/>
  <circle cx="622" cy="92" r="31" fill="#D97A48" fill-opacity="0.8"/>
  <path d="M116 196C157 170 203 151 252 146" stroke="#CDB88F" stroke-width="24" stroke-linecap="round" opacity="0.44"/>
  <path d="M498 170C550 177 598 197 650 233" stroke="#A5A890" stroke-width="17" stroke-linecap="round" opacity="0.34"/>
  <rect x="208" y="294" width="384" height="62" rx="5" fill="#CFC4B1"/>
  <rect x="248" y="248" width="304" height="50" rx="4" fill="#E8E0D3"/>
  <rect x="300" y="202" width="200" height="52" rx="4" fill="#C04E42"/>
  <rect x="332" y="158" width="136" height="48" rx="4" fill="#E7E0D2"/>
  <rect x="364" y="120" width="72" height="40" rx="4" fill="#C04E42"/>
  <path d="M400 88L426 120H374L400 88Z" fill="#8B473E"/>
  <rect x="385" y="214" width="30" height="142" fill="#8B473E"/>
</svg>
